<svg id="Layer_1" data-name="Layer 1" xmlns="http://www.w3.org/2000/svg" viewBox="0 0 484.4 151.38">
  <defs>
    <style>.cls-1{fill:none;stroke:#000;stroke-linecap:round;stroke-linejoin:round;}</style>
  </defs>
  <title>logo-monochrome</title>
  <polygon class="cls-1" points="144.5 1.06 72.5 73.06 0.5 73.06 72.5 1.06 144.5 1.06"/>
  <polygon class="cls-1" points="72.5 1.06 0.5 1.06 0.5 73.06 72.5 1.06"/>
  <polygon class="cls-1" points="0.5 73.06 0.5 145.06 72.5 145.06 0.5 73.06"/>
  <polygon class="cls-1" points="0.5 73.06 72.5 145.06 144.5 145.06 72.5 73.06 0.5 73.06"/>
  <path d="M216,35.56h6.4v18.3l17.32-18.3h7.9L232.45,51.21,248.31,72h-7.8L228.08,55.58l-5.67,5.82V72H216Z"
        transform="translate(-35.5 -34.93)"/>
  <path
    d="M250.85,53.86v-.1a19,19,0,0,1,38.07-.1v.1a19,19,0,0,1-38.07.1Zm31.36,0v-.1c0-7.07-5.15-12.95-12.38-12.95s-12.27,5.77-12.27,12.85v.1c0,7.07,5.15,12.9,12.38,12.9S282.21,60.94,282.21,53.86Z"
    transform="translate(-35.5 -34.93)"/>
  <path d="M304.31,41.49H292.77V35.56H322.3v5.93H310.76V72h-6.45Z" transform="translate(-35.5 -34.93)"/>
  <path d="M329.06,35.56h6.4V66.14h19.13V72H329.06Z" transform="translate(-35.5 -34.93)"/>
  <path d="M361.61,35.56H368V72h-6.4Z" transform="translate(-35.5 -34.93)"/>
  <path d="M377.73,35.56h5.93l19.5,25.17V35.56h6.29V72H404.1L384,46.06V72h-6.29Z" transform="translate(-35.5 -34.93)"/>
  <path d="M216,89.56h27v5.72H222.41v9.46h18.25v5.72H222.41v9.78h20.85V126H216Z" transform="translate(-35.5 -34.93)"/>
  <path d="M247.53,98.5h6.76l7.38,20.18,7.44-20.18h6.6l-11.23,27.67h-5.67Z" transform="translate(-35.5 -34.93)"/>
  <path
    d="M279.56,112.34v-.11c0-7.85,5.56-14.3,13.41-14.3,8.74,0,13.16,6.86,13.16,14.77,0,.57-.05,1.14-.1,1.77H285.85a7.67,7.67,0,0,0,7.9,7,10,10,0,0,0,7.44-3.28l3.69,3.28a13.88,13.88,0,0,1-11.23,5.14C285.69,126.58,279.56,120.81,279.56,112.34Zm20.33-2c-.42-4.06-2.81-7.23-7-7.23-3.85,0-6.55,3-7.12,7.23Z"
    transform="translate(-35.5 -34.93)"/>
  <path d="M312.47,98.5h6.29v6.19c1.72-4.11,4.89-6.92,9.73-6.71v6.66h-.36c-5.52,0-9.37,3.59-9.37,10.87V126h-6.29Z"
        transform="translate(-35.5 -34.93)"/>
  <path
    d="M353,98.5h6.55l-10.92,28.24c-2.18,5.62-4.63,7.7-9.05,7.7a13,13,0,0,1-6.5-1.67l2.14-4.68a7.66,7.66,0,0,0,3.69,1c1.77,0,2.86-.78,3.9-3.12L331.35,98.5h6.76l7.75,20.39Z"
    transform="translate(-35.5 -34.93)"/>
  <path
    d="M362.65,98.5h6.45l5.51,18.83L380.7,98.4h5.4l6.09,18.93L397.8,98.5h6.35l-9,27.67h-5.67l-6.13-18.77-6.19,18.77h-5.62Z"
    transform="translate(-35.5 -34.93)"/>
  <path
    d="M409.71,88H416v14.71a10,10,0,0,1,8.58-4.78c6.19,0,9.78,4.16,9.78,10.51V126h-6.29v-15.6c0-4.26-2.13-6.71-5.88-6.71S416,106.2,416,110.46V126h-6.29Z"
    transform="translate(-35.5 -34.93)"/>
  <path
    d="M440.44,112.34v-.11c0-7.85,5.57-14.3,13.42-14.3,8.74,0,13.16,6.86,13.16,14.77,0,.57-.06,1.14-.11,1.77H446.73a7.67,7.67,0,0,0,7.91,7,10,10,0,0,0,7.44-3.28l3.69,3.28a13.88,13.88,0,0,1-11.23,5.14C446.58,126.58,440.44,120.81,440.44,112.34Zm20.34-2c-.42-4.06-2.81-7.23-7-7.23-3.85,0-6.56,3-7.13,7.23Z"
    transform="translate(-35.5 -34.93)"/>
  <path d="M473.36,98.5h6.29v6.19c1.72-4.11,4.89-6.92,9.73-6.71v6.66H489c-5.51,0-9.36,3.59-9.36,10.87V126h-6.29Z"
        transform="translate(-35.5 -34.93)"/>
  <path
    d="M493.33,112.34v-.11c0-7.85,5.56-14.3,13.41-14.3,8.74,0,13.16,6.86,13.16,14.77,0,.57,0,1.14-.11,1.77H499.62a7.66,7.66,0,0,0,7.9,7,10,10,0,0,0,7.44-3.28l3.69,3.28a13.88,13.88,0,0,1-11.23,5.14C499.46,126.58,493.33,120.81,493.33,112.34Zm20.33-2c-.42-4.06-2.81-7.23-7-7.23-3.85,0-6.55,3-7.12,7.23Z"
    transform="translate(-35.5 -34.93)"/>
  <path
    d="M214,166.39v-.08c0-7.49,5.49-14.12,13.69-14.12a14.37,14.37,0,0,1,10.17,3.63l-2,2.34a11.64,11.64,0,0,0-8.31-3.12c-6.05,0-10.38,5.11-10.38,11.19v.08c0,6.51,4.18,11.35,10.81,11.35a12.89,12.89,0,0,0,7.88-2.73v-6.79h-8.31v-2.77h11.27v10.88a16.52,16.52,0,0,1-11,4.18C219.29,180.43,214,174.19,214,166.39Z"
    transform="translate(-35.5 -34.93)"/>
  <path
    d="M244,170v-.08a10.51,10.51,0,0,1,21-.08v.08a10.48,10.48,0,0,1-10.57,10.53A10.33,10.33,0,0,1,244,170ZM262,170v-.08a7.63,7.63,0,0,0-7.49-7.88c-4.37,0-7.37,3.55-7.37,7.8v.08a7.57,7.57,0,0,0,7.45,7.84A7.44,7.44,0,0,0,262,170Z"
    transform="translate(-35.5 -34.93)"/>
  <path d="M270.46,159.8h3v5.26c1.48-3.35,4.41-5.77,8.23-5.61v3.23h-.23c-4.41,0-8,3.16-8,9.25v8h-3Z"
        transform="translate(-35.5 -34.93)"/>
  <path d="M286.25,151.49h3v19.66l10.88-11.35h3.74l-8.46,8.66,8.73,11.5h-3.58l-7.22-9.4-4.09,4.14V180h-3Z"
        transform="translate(-35.5 -34.93)"/>
  <path
    d="M323.54,159.8h3.19l-8.46,20.82c-1.71,4.18-3.66,5.7-6.71,5.7a9.12,9.12,0,0,1-4.29-1l1-2.38a6.26,6.26,0,0,0,3.16.75c1.79,0,2.92-.94,4.13-3.79l-9.16-20.08h3.31l7.33,16.81Z"
    transform="translate(-35.5 -34.93)"/>
  <path d="M436.21,52.88,447.7,35.56h7L441.49,54.64,430,72h-7Z" transform="translate(-35.5 -34.93)"/>
</svg>
